<svg width="103" height="72" viewBox="0 0 103 72" fill="none" xmlns="http://www.w3.org/2000/svg">
<path fill-rule="evenodd" clip-rule="evenodd" d="M37.8816 72C31.3651 72 26.077 66.9871 26.077 60.8061V60.8027V60.7958V52.7062C25.9825 52.0275 25.5901 50.2153 24.2524 48.951C22.8823 47.652 20.6398 47.3006 20.1165 47.2317H11.8156H11.8083C5.28808 47.2317 6.10352e-05 42.2224 6.10352e-05 36.0378L0.00379592 36.0172L6.10352e-05 35.9897C6.10352e-05 29.8122 5.28808 24.7994 11.8083 24.7994H11.8118H11.8156H20.0001L19.9857 24.789C19.9857 24.789 22.6024 24.5823 24.2743 22.9975C25.6771 21.6676 26.0333 19.473 26.088 19.0492V11.2007V11.1974V11.1938C26.088 5.00606 31.3759 0 37.8962 0C43.6023 0 48.3596 3.83469 49.4608 8.93716C49.6205 9.66052 49.7042 10.4152 49.7042 11.1903V11.1974V11.2007V19.1421C49.7806 19.6726 50.144 21.6883 51.5141 22.9768C53.2406 24.6202 55.7265 24.789 55.7265 24.789L55.7156 24.7958H63.9838H63.9876H63.9947C70.5149 24.7958 75.803 29.8054 75.803 35.9864C75.803 42.1671 70.5149 47.1799 63.9947 47.1799C57.4748 47.1799 52.1902 42.1671 52.1902 35.9864V35.9828V35.976V27.845C52.0776 27.1317 51.6486 25.3403 50.3368 24.0931C49.0066 22.8322 46.8657 22.4634 46.2551 22.3809H37.9072H37.9034H37.8997H37.8962H37.8924H37.8853H29.6386C29.6386 22.3809 27.0329 22.6116 25.4481 24.1136C24.0636 25.4263 23.7002 27.2007 23.6129 27.8586V35.9828V35.9864V35.9897V36.0172V36.0378V36.0447V36.0481V43.9586C23.6746 44.4099 24.0234 46.5048 25.4263 47.8379C27.1602 49.4745 29.6496 49.6019 29.6496 49.6019L29.6349 49.6123H37.8706H37.8743H37.8816C44.4018 49.6123 49.6898 54.6255 49.6898 60.8061C49.6898 66.9871 44.4018 72 37.8816 72Z" fill="#E44F0E"/>
<path fill-rule="evenodd" clip-rule="evenodd" d="M52.2582 11.1903C52.2582 17.3712 57.5428 22.3841 64.0634 22.3841H64.0705H64.0743H72.3104L72.2957 22.3945C72.2957 22.3945 74.789 22.5219 76.5193 24.1617C77.9256 25.4952 78.2747 27.5831 78.3327 28.0378V35.945V35.9482V35.9553V35.9828V36.0033V36.0104V44.1414C78.2457 44.7922 77.8857 46.5702 76.4974 47.8829C74.9163 49.3849 72.3067 49.6123 72.3067 49.6123H64.0597H64.0562H64.0524H64.0487H64.0415H64.038H55.6894C55.0822 49.5298 52.938 49.161 51.6078 47.9036C50.2956 46.6597 49.8703 44.8647 49.7577 44.1514V36.0172V36.0138V36.0104C49.7577 29.8294 44.4729 24.8165 37.9523 24.8165C31.4321 24.8165 26.1438 29.8294 26.1438 36.0104C26.1438 42.1913 31.4321 47.2006 37.9523 47.2006H37.9561H37.9598H46.2322L46.2212 47.2077C46.2212 47.2077 48.7036 47.3763 50.4336 49.0196C51.8003 50.312 52.1675 52.3239 52.2436 52.8544V60.7958V60.7994V60.8061C52.2436 61.578 52.3272 62.3324 52.4835 63.0629C53.5848 68.1621 58.3461 72 64.0487 72H64.0524C70.573 72 75.8576 66.9871 75.8576 60.8061V60.7994V60.7958V52.944C75.9121 52.5238 76.2684 50.3324 77.6748 48.9957C79.347 47.4141 81.9638 47.1868 81.9638 47.1868L81.9492 47.1971H90.1307H90.1344H90.1416C96.6622 47.1971 101.947 42.1878 101.947 36.0033V35.9828V35.9553C101.947 29.7744 96.6622 24.7647 90.1416 24.7647H90.1344H90.1307H81.8293C81.3096 24.6994 79.0671 24.348 77.6932 23.0457C76.3592 21.7811 75.963 19.9657 75.8722 19.2903V11.2007V11.1971V11.1938C75.8722 5.00606 70.584 0 64.0634 0C57.5428 0 52.2582 5.00606 52.2582 11.1903Z" fill="#E44F0E"/>
</svg>
